<svg width="71" height="62" viewBox="0 0 71 62" fill="none" xmlns="http://www.w3.org/2000/svg">
<path d="M70.1638 57.875L37.6638 1.625C37.1795 0.789062 36.3435 0.375 35.4998 0.375C34.656 0.375 33.8123 0.789062 33.3357 1.625L0.83572 57.875C-0.125217 59.5469 1.07791 61.625 2.99978 61.625H67.9998C69.9217 61.625 71.1248 59.5469 70.1638 57.875ZM32.9998 23.5C32.9998 23.1562 33.281 22.875 33.6248 22.875H37.3748C37.7185 22.875 37.9998 23.1562 37.9998 23.5V37.875C37.9998 38.2188 37.7185 38.5 37.3748 38.5H33.6248C33.281 38.5 32.9998 38.2188 32.9998 37.875V23.5ZM35.4998 51C34.5185 50.98 33.5841 50.5761 32.8972 49.875C32.2103 49.1739 31.8255 48.2315 31.8255 47.25C31.8255 46.2685 32.2103 45.3261 32.8972 44.625C33.5841 43.9239 34.5185 43.52 35.4998 43.5C36.4811 43.52 37.4154 43.9239 38.1024 44.625C38.7893 45.3261 39.174 46.2685 39.174 47.25C39.174 48.2315 38.7893 49.1739 38.1024 49.875C37.4154 50.5761 36.4811 50.98 35.4998 51Z" fill="#FAAD14"/>
</svg>
